<?xml version="1.0" standalone="no"?>
<!DOCTYPE svg PUBLIC "-//W3C//DTD SVG 20010904//EN"
 "http://www.w3.org/TR/2001/REC-SVG-20010904/DTD/svg10.dtd">
<svg version="1.0" xmlns="http://www.w3.org/2000/svg"
 width="428.000000pt" height="428.000000pt" viewBox="0 0 428.000000 428.000000"
 preserveAspectRatio="xMidYMid meet">
<metadata>
Created by potrace 1.14, written by Peter Selinger 2001-2017
</metadata>
<g transform="translate(0.000000,428.000000) scale(0.100000,-0.100000)"
fill="#000000" stroke="none">
<path d="M3313 3582 c-29 -16 -315 -233 -627 -474 -83 -65 -158 -118 -167
-118 -26 0 -69 39 -69 63 1 12 11 47 23 77 20 50 29 58 81 85 33 17 59 35 59
40 0 6 -17 19 -39 31 -28 15 -41 30 -49 56 -5 19 -16 42 -22 50 -21 24 -88 39
-142 32 -46 -6 -51 -9 -74 -53 l-24 -46 -51 2 c-49 2 -52 0 -52 -22 0 -25 31
-55 78 -74 23 -10 28 -17 25 -35 -3 -13 3 -38 11 -55 11 -21 15 -43 11 -65 -6
-28 -2 -39 23 -67 l30 -34 -20 -28 -20 -28 -13 24 c-7 14 -18 42 -25 64 -6 21
-13 44 -16 51 -3 10 -12 8 -39 -8 -27 -16 -44 -20 -69 -16 -44 8 -65 0 -59
-24 3 -12 -3 -22 -19 -31 -12 -6 -25 -16 -29 -20 -3 -5 -19 -5 -37 0 -27 8
-36 6 -62 -15 -38 -33 -64 -25 -90 27 -11 21 -23 39 -26 39 -13 0 6 -61 30
-97 41 -64 41 -79 5 -112 -31 -29 -32 -31 -25 -94 4 -45 2 -74 -8 -97 -16 -38
-7 -91 21 -122 17 -20 17 -21 -2 -35 -71 -52 -209 -144 -629 -422 -449 -297
-533 -361 -478 -361 22 0 618 400 987 663 104 74 122 84 137 69 23 -23 7 -172
-19 -172 -3 0 -3 34 0 75 3 41 2 75 -3 75 -17 0 -41 -52 -38 -83 3 -34 0 -37
-190 -191 -39 -32 -72 -64 -72 -72 0 -7 -20 -27 -45 -45 -25 -18 -45 -34 -45
-37 0 -2 12 -21 28 -43 27 -38 37 -43 124 -55 44 -6 48 -4 59 20 7 14 18 26
26 26 8 0 23 21 34 48 11 26 32 64 46 85 15 21 29 53 32 73 l6 34 53 -68 c56
-75 59 -82 38 -82 -16 0 -26 -21 -26 -56 0 -30 -12 -31 -25 -1 -7 16 -18 22
-40 22 -29 0 -30 -1 -28 -48 1 -26 8 -59 17 -72 22 -33 20 -43 -6 -47 -15 -2
-24 -11 -26 -25 -2 -13 -6 -23 -9 -23 -3 0 -23 19 -44 42 -21 24 -40 40 -42
38 -12 -13 -67 -112 -67 -121 0 -16 53 -65 77 -73 16 -5 23 -2 26 11 2 10 4
-25 4 -77 0 -61 5 -113 15 -145 9 -27 19 -75 23 -105 3 -30 8 -71 11 -91 4
-23 1 -47 -9 -65 -13 -24 -13 -33 -1 -67 8 -22 12 -43 9 -47 -3 -4 11 -15 30
-24 41 -20 56 -43 45 -72 -21 -54 -71 -42 -96 21 -26 70 -36 55 -29 -47 8
-108 2 -130 -53 -190 -22 -24 -45 -56 -53 -73 -8 -16 -30 -40 -49 -53 -67 -45
-44 -52 120 -37 30 2 75 9 100 14 25 6 58 13 73 16 16 3 41 18 55 33 15 15 30
26 35 24 4 -1 7 2 7 8 0 15 21 12 41 -6 10 -9 38 -17 63 -17 38 -2 46 -5 46
-21 0 -15 5 -17 33 -11 17 3 51 9 75 12 32 4 47 12 59 32 10 14 18 28 20 30 2
3 19 6 38 7 32 3 34 1 25 -16 -5 -10 -15 -20 -22 -23 -24 -8 1 -20 27 -13 17
4 30 17 37 37 10 30 11 30 62 24 98 -12 111 -12 116 -4 3 5 21 11 40 13 19 3
52 8 73 11 21 3 46 9 55 14 9 5 37 12 62 16 24 4 65 16 90 28 35 15 70 20 157
22 72 2 118 7 128 15 8 7 27 10 42 7 28 -5 83 10 83 23 0 12 -21 25 -65 41
-47 17 -105 14 -105 -6 0 -13 -21 -25 -43 -25 -7 0 -1 9 13 20 33 25 12 34
-53 21 l-49 -9 32 33 c18 18 29 38 26 44 -11 17 -45 13 -72 -8 -25 -19 -25
-19 -52 6 -28 26 -35 26 -126 0 -39 -11 -52 -20 -59 -40 -12 -36 -27 -34 -27
3 0 23 -4 30 -20 30 -16 0 -20 7 -20 30 0 19 -5 30 -14 30 -8 0 -24 -13 -36
-30 -28 -40 -45 -38 -48 5 -3 33 20 87 68 160 33 50 41 78 41 135 0 59 21 106
51 116 15 4 17 12 11 47 -6 38 -5 41 10 28 10 -7 17 -19 17 -26 0 -7 9 -24 21
-39 16 -20 29 -26 59 -26 21 0 41 -4 44 -9 9 -15 -5 -19 -34 -11 -21 6 -32 4
-41 -6 -9 -11 -8 -14 3 -14 8 0 27 -13 42 -29 23 -24 33 -28 50 -21 11 5 43
12 69 15 36 5 59 15 85 40 l37 33 -27 52 c-22 43 -25 57 -16 73 9 18 6 25 -23
51 -19 17 -45 39 -59 49 l-25 18 30 -6 c17 -4 38 -14 48 -22 9 -9 20 -13 24
-10 12 12 -50 67 -89 79 -47 14 -64 48 -72 143 -10 127 -48 215 -125 290 -23
21 -41 45 -41 52 0 21 -21 15 -27 -7 -6 -24 -16 -25 -33 -5 -9 10 -24 13 -56
8 -34 -4 -44 -3 -44 9 0 8 5 19 11 25 7 7 3 16 -15 30 -20 16 -25 30 -28 74
-3 47 -6 54 -25 57 -20 3 -23 9 -23 45 0 67 8 82 65 116 30 18 57 40 59 50 3
9 4 84 3 166 -1 83 2 159 6 171 7 20 -6 40 -46 67 -20 14 -29 7 458 370 165
123 308 233 318 244 24 28 7 36 -30 15z m-1283 -1039 l-1 -98 -44 -21 -45 -21
0 72 c0 86 15 135 40 135 10 0 20 7 24 15 3 8 10 15 16 15 6 0 10 -37 10 -97z
m308 -15 c21 -21 13 -34 -23 -35 -39 -1 -42 3 -18 29 19 21 25 22 41 6z m-327
-185 c21 -24 30 -51 20 -58 -5 -2 -12 -20 -15 -39 -6 -30 -46 -82 -46 -59 0 6
-12 22 -27 37 -23 23 -25 29 -15 52 7 14 12 31 12 39 0 7 4 25 10 40 8 21 13
24 28 16 9 -5 24 -17 33 -28z m302 -118 c9 -20 17 -53 17 -74 0 -25 5 -41 15
-45 8 -3 15 -11 15 -17 0 -8 -7 -7 -22 3 -15 10 -28 37 -39 84 -21 82 -21 84
-11 84 5 0 16 -16 25 -35z m5 -171 c12 -8 22 -24 22 -34 0 -27 -38 -110 -50
-110 -19 0 -24 32 -7 42 21 11 22 61 2 78 -18 15 -20 40 -2 40 7 0 23 -7 35
-16z m-158 -438 c0 -2 -18 -15 -40 -30 -24 -15 -40 -34 -40 -46 0 -25 -4 -26
-80 -35 -60 -7 -81 0 -31 10 11 2 49 24 83 48 68 48 108 68 108 53z m98 -190
c7 -4 12 -14 12 -22 0 -24 30 -76 65 -114 39 -42 125 -198 125 -228 0 -11 7
-27 15 -36 18 -18 20 -97 3 -114 -18 -18 -46 -14 -53 8 -10 30 -19 18 -40 -50
-20 -67 -41 -93 -51 -66 -4 9 4 37 17 61 19 35 22 49 13 62 -22 35 -39 21 -44
-37 -3 -33 -8 -50 -13 -42 -13 19 -45 14 -52 -8 -9 -30 -25 -24 -25 9 0 67
-31 111 -79 111 -19 0 -20 -4 -14 -45 4 -36 2 -50 -12 -65 -20 -22 -45 -26
-63 -8 -8 8 -15 8 -28 -3 -9 -8 -35 -21 -57 -29 -51 -19 -57 -35 -18 -57 17
-10 31 -24 31 -30 0 -19 -16 -16 -37 6 -10 10 -31 26 -46 36 l-28 18 23 24
c19 20 20 26 8 33 -20 12 -27 6 -55 -51 -26 -49 -59 -66 -71 -35 -10 25 15 92
47 126 30 31 31 35 25 96 -6 58 -4 67 20 103 18 28 30 65 38 124 7 46 16 89
20 95 15 25 144 99 205 119 64 21 97 23 119 9z m305 -36 c8 -21 4 -34 -17 -65
-16 -23 -25 -48 -22 -60 13 -60 15 -81 7 -94 -5 -8 -14 -10 -21 -6 -9 5 -11
28 -7 78 4 60 1 75 -15 97 -22 30 -17 53 15 68 32 16 50 10 60 -18z m-691
-169 c-30 -134 -37 -151 -61 -151 -11 0 -28 12 -39 27 l-20 27 29 43 c32 46
68 75 84 69 5 -2 9 -9 7 -15z"/>
</g>
</svg>
